# xmcd
#
# Track frame offsets:
#	150
#	17973
#	38571
#	70344
#	89817
#	106515
#	124338
#	151011
#	165009
#	182232
#	222030
#	228753
#	243576
#	257499
#	270297
#	299295
#
# Disc length: 4197 seconds
#
# Revision: 1
# Processed by: cddbd v1.5.2PL0 Copyright (c) Steve Scherf et al.
# Submitted via: audiograbber 1.83.01
#
DISCID=cb106310
DTITLE=Hubert von Goisern - Derweil [CD 2)
DYEAR=2006
DGENRE=Other
TTITLE0=Da Diab
TTITLE1=Spat
TTITLE2=Fön
TTITLE3=Fia di
TTITLE4=Mercedes Benz
TTITLE5=Da Dasige
TTITLE6=I bi an
TTITLE7=Polka
TTITLE8=Afrika
TTITLE9=Neuer Tag (In dem Moment)
TTITLE10=Schau, schau wias regna tuat
TTITLE11=Diandl woaßt nu den Bam
TTITLE12=Über d'Alma
TTITLE13=Wann i durchgeh durch's Tal
TTITLE14=Kohler
TTITLE15=Da Insrige
EXTD=
EXTT0=
EXTT1=
EXTT2=
EXTT3=
EXTT4=
EXTT5=
EXTT6=
EXTT7=
EXTT8=
EXTT9=
EXTT10=
EXTT11=
EXTT12=
EXTT13=
EXTT14=
EXTT15=
PLAYORDER=
